<svg xmlns="http://www.w3.org/2000/svg" xmlns:xlink="http://www.w3.org/1999/xlink" version="1.1" width="256" height="256" viewBox="0 0 256 256" xml:space="preserve">

<defs>
</defs>
<g style="stroke: none; stroke-width: 0; stroke-dasharray: none; stroke-linecap: butt; stroke-linejoin: miter; stroke-miterlimit: 10; fill: none; fill-rule: nonzero; opacity: 1;" transform="translate(1.4065934065934016 1.4065934065934016) scale(2.81 2.81)" >
	<path d="M 32.613 39.88 H 7.267 C 3.26 39.88 0 36.62 0 32.613 V 7.267 C 0 3.26 3.26 0 7.267 0 h 25.346 c 4.007 0 7.267 3.26 7.267 7.267 v 25.346 C 39.88 36.62 36.62 39.88 32.613 39.88 z M 7.267 4 C 5.465 4 4 5.465 4 7.267 v 25.346 c 0 1.801 1.465 3.267 3.267 3.267 h 25.346 c 1.801 0 3.267 -1.466 3.267 -3.267 V 7.267 C 35.88 5.465 34.414 4 32.613 4 H 7.267 z" style="stroke: none; stroke-width: 1; stroke-dasharray: none; stroke-linecap: butt; stroke-linejoin: miter; stroke-miterlimit: 10; fill: rgb(184,60,69); fill-rule: nonzero; opacity: 1;" transform=" matrix(1 0 0 1 0 0) " stroke-linecap="round" />
	<path d="M 82.733 39.88 H 57.387 c -4.007 0 -7.267 -3.26 -7.267 -7.267 V 7.267 C 50.12 3.26 53.38 0 57.387 0 h 25.347 C 86.74 0 90 3.26 90 7.267 v 25.346 C 90 36.62 86.74 39.88 82.733 39.88 z M 57.387 4 c -1.801 0 -3.267 1.465 -3.267 3.267 v 25.346 c 0 1.801 1.466 3.267 3.267 3.267 h 25.347 c 1.801 0 3.267 -1.466 3.267 -3.267 V 7.267 C 86 5.465 84.534 4 82.733 4 H 57.387 z" style="stroke: none; stroke-width: 1; stroke-dasharray: none; stroke-linecap: butt; stroke-linejoin: miter; stroke-miterlimit: 10; fill: rgb(184,60,69); fill-rule: nonzero; opacity: 1;" transform=" matrix(1 0 0 1 0 0) " stroke-linecap="round" />
	<path d="M 32.613 90 H 7.267 C 3.26 90 0 86.74 0 82.733 V 57.387 c 0 -4.007 3.26 -7.267 7.267 -7.267 h 25.346 c 4.007 0 7.267 3.26 7.267 7.267 v 25.347 C 39.88 86.74 36.62 90 32.613 90 z M 7.267 54.12 C 5.465 54.12 4 55.586 4 57.387 v 25.347 C 4 84.534 5.465 86 7.267 86 h 25.346 c 1.801 0 3.267 -1.466 3.267 -3.267 V 57.387 c 0 -1.801 -1.466 -3.267 -3.267 -3.267 H 7.267 z" style="stroke: none; stroke-width: 1; stroke-dasharray: none; stroke-linecap: butt; stroke-linejoin: miter; stroke-miterlimit: 10; fill: rgb(184,60,69); fill-rule: nonzero; opacity: 1;" transform=" matrix(1 0 0 1 0 0) " stroke-linecap="round" />
	<path d="M 82.733 90 H 57.387 c -4.007 0 -7.267 -3.26 -7.267 -7.267 V 57.387 c 0 -4.007 3.26 -7.267 7.267 -7.267 h 25.347 c 4.007 0 7.267 3.26 7.267 7.267 v 25.347 C 90 86.74 86.74 90 82.733 90 z M 57.387 54.12 c -1.801 0 -3.267 1.466 -3.267 3.267 v 25.347 c 0 1.801 1.466 3.267 3.267 3.267 h 25.347 C 84.534 86 86 84.534 86 82.733 V 57.387 c 0 -1.801 -1.466 -3.267 -3.267 -3.267 H 57.387 z" style="stroke: none; stroke-width: 1; stroke-dasharray: none; stroke-linecap: butt; stroke-linejoin: miter; stroke-miterlimit: 10; fill: rgb(184,60,69); fill-rule: nonzero; opacity: 1;" transform=" matrix(1 0 0 1 0 0) " stroke-linecap="round" />
</g>
</svg>